<svg xmlns="http://www.w3.org/2000/svg" xmlns:xlink="http://www.w3.org/1999/xlink" viewBox="0 0 30 30" fill="#FFFFFF">
  <path d="M15 2L11 6L19 6L15 2 z M 11 8L11 13L8 13L8 11L6 11L6 12L4 12L4 11L2 11L2 17L4 18L4 26L12 26L12 23C12 21.343 13.343 20 15 20C16.657 20 18 21.343 18 23L18 26L26 26L26 18L28 17L28 11L26 11L26 12L24 12L24 11L22 11L22 13L19 13L19 8L11 8 z M 8 20C8.552 20 9 20.448 9 21L9 23L7 23L7 21C7 20.448 7.448 20 8 20 z M 22 20C22.552 20 23 20.448 23 21L23 23L21 23L21 21C21 20.448 21.448 20 22 20 z" fill="#FFFFFF" />
</svg>